<svg xmlns="http://www.w3.org/2000/svg" version="1.1" xmlns:xlink="http://www.w3.org/1999/xlink" xmlns:svgjs="http://svgjs.dev/svgjs" viewBox="0 0 800 800" opacity="0.29"><g stroke-width="1" stroke="#088a47" fill="none"><circle r="407" cx="50%" cy="0"></circle><circle r="388.5" cx="50%" cy="0"></circle><circle r="370" cx="50%" cy="0"></circle><circle r="351.5" cx="50%" cy="0"></circle><circle r="333" cx="50%" cy="0"></circle><circle r="314.5" cx="50%" cy="0"></circle><circle r="296" cx="50%" cy="0"></circle><circle r="277.5" cx="50%" cy="0"></circle><circle r="259" cx="50%" cy="0"></circle><circle r="240.5" cx="50%" cy="0"></circle><circle r="222" cx="50%" cy="0"></circle><circle r="203.5" cx="50%" cy="0"></circle><circle r="185" cx="50%" cy="0"></circle><circle r="166.5" cx="50%" cy="0"></circle><circle r="148" cx="50%" cy="0"></circle><circle r="129.5" cx="50%" cy="0"></circle><circle r="111" cx="50%" cy="0"></circle><circle r="92.5" cx="50%" cy="0"></circle><circle r="74" cx="50%" cy="0"></circle><circle r="55.5" cx="50%" cy="0"></circle><circle r="37" cx="50%" cy="0"></circle><circle r="18.5" cx="50%" cy="0"></circle></g><g stroke-width="1" stroke="#088a47" fill="none"><circle r="407" cx="50%" cy="100%"></circle><circle r="388.5" cx="50%" cy="100%"></circle><circle r="370" cx="50%" cy="100%"></circle><circle r="351.5" cx="50%" cy="100%"></circle><circle r="333" cx="50%" cy="100%"></circle><circle r="314.5" cx="50%" cy="100%"></circle><circle r="296" cx="50%" cy="100%"></circle><circle r="277.5" cx="50%" cy="100%"></circle><circle r="259" cx="50%" cy="100%"></circle><circle r="240.5" cx="50%" cy="100%"></circle><circle r="222" cx="50%" cy="100%"></circle><circle r="203.5" cx="50%" cy="100%"></circle><circle r="185" cx="50%" cy="100%"></circle><circle r="166.5" cx="50%" cy="100%"></circle><circle r="148" cx="50%" cy="100%"></circle><circle r="129.5" cx="50%" cy="100%"></circle><circle r="111" cx="50%" cy="100%"></circle><circle r="92.5" cx="50%" cy="100%"></circle><circle r="74" cx="50%" cy="100%"></circle><circle r="55.5" cx="50%" cy="100%"></circle><circle r="37" cx="50%" cy="100%"></circle><circle r="18.5" cx="50%" cy="100%"></circle></g><g stroke-width="1" stroke="#088a47" fill="none"><circle r="407" cx="0" cy="50%"></circle><circle r="388.5" cx="0" cy="50%"></circle><circle r="370" cx="0" cy="50%"></circle><circle r="351.5" cx="0" cy="50%"></circle><circle r="333" cx="0" cy="50%"></circle><circle r="314.5" cx="0" cy="50%"></circle><circle r="296" cx="0" cy="50%"></circle><circle r="277.5" cx="0" cy="50%"></circle><circle r="259" cx="0" cy="50%"></circle><circle r="240.5" cx="0" cy="50%"></circle><circle r="222" cx="0" cy="50%"></circle><circle r="203.5" cx="0" cy="50%"></circle><circle r="185" cx="0" cy="50%"></circle><circle r="166.5" cx="0" cy="50%"></circle><circle r="148" cx="0" cy="50%"></circle><circle r="129.5" cx="0" cy="50%"></circle><circle r="111" cx="0" cy="50%"></circle><circle r="92.5" cx="0" cy="50%"></circle><circle r="74" cx="0" cy="50%"></circle><circle r="55.5" cx="0" cy="50%"></circle><circle r="37" cx="0" cy="50%"></circle><circle r="18.5" cx="0" cy="50%"></circle></g><g stroke-width="1" stroke="#088a47" fill="none"><circle r="407" cx="100%" cy="50%"></circle><circle r="388.5" cx="100%" cy="50%"></circle><circle r="370" cx="100%" cy="50%"></circle><circle r="351.5" cx="100%" cy="50%"></circle><circle r="333" cx="100%" cy="50%"></circle><circle r="314.5" cx="100%" cy="50%"></circle><circle r="296" cx="100%" cy="50%"></circle><circle r="277.5" cx="100%" cy="50%"></circle><circle r="259" cx="100%" cy="50%"></circle><circle r="240.5" cx="100%" cy="50%"></circle><circle r="222" cx="100%" cy="50%"></circle><circle r="203.5" cx="100%" cy="50%"></circle><circle r="185" cx="100%" cy="50%"></circle><circle r="166.5" cx="100%" cy="50%"></circle><circle r="148" cx="100%" cy="50%"></circle><circle r="129.5" cx="100%" cy="50%"></circle><circle r="111" cx="100%" cy="50%"></circle><circle r="92.5" cx="100%" cy="50%"></circle><circle r="74" cx="100%" cy="50%"></circle><circle r="55.5" cx="100%" cy="50%"></circle><circle r="37" cx="100%" cy="50%"></circle><circle r="18.5" cx="100%" cy="50%"></circle></g></svg>