<svg xmlns="http://www.w3.org/2000/svg" version="1.1" xmlns:xlink="http://www.w3.org/1999/xlink" xmlns:svgjs="http://svgjs.dev/svgjs" viewBox="0 0 800 800"><g fill="#088a47" transform="matrix(1.1,0,0,1.1,-40.05000000000001,-39.400000000000034)"><circle r="1.5" cx="405" cy="400" opacity="0.89"></circle><circle r="1.5" cx="404" cy="405" opacity="0.33"></circle><circle r="1.5" cx="398" cy="407" opacity="0.66"></circle><circle r="1.5" cx="393" cy="402" opacity="0.46"></circle><circle r="1.5" cx="393" cy="395" opacity="0.19"></circle><circle r="1.5" cx="400" cy="390" opacity="0.51"></circle><circle r="1.5" cx="409" cy="394" opacity="0.55"></circle><circle r="1.5" cx="411" cy="403" opacity="0.45"></circle><circle r="1.5" cx="404" cy="412" opacity="0.19"></circle><circle r="1.5" cx="392" cy="411" opacity="0.78"></circle><circle r="1.5" cx="386" cy="400" opacity="0.83"></circle><circle r="1.5" cx="391" cy="388" opacity="0.57"></circle><circle r="1.5" cx="405" cy="384" opacity="0.59"></circle><circle r="1.5" cx="416" cy="394" opacity="0.80"></circle><circle r="1.5" cx="415" cy="410" opacity="0.45"></circle><circle r="1.5" cx="401" cy="419" opacity="0.25"></circle><circle r="1.5" cx="384" cy="412" opacity="0.37"></circle><circle r="1.5" cx="380" cy="394" opacity="0.34"></circle><circle r="1.5" cx="392" cy="379" opacity="0.55"></circle><circle r="1.5" cx="413" cy="381" opacity="0.34"></circle><circle r="1.5" cx="424" cy="399" opacity="0.84"></circle><circle r="1.5" cx="416" cy="419" opacity="0.44"></circle><circle r="1.5" cx="393" cy="425" opacity="0.93"></circle><circle r="1.5" cx="375" cy="410" opacity="0.29"></circle><circle r="1.5" cx="377" cy="385" opacity="0.62"></circle><circle r="1.5" cx="398" cy="372" opacity="0.16"></circle><circle r="1.5" cx="423" cy="381" opacity="0.89"></circle><circle r="1.5" cx="429" cy="407" opacity="0.24"></circle><circle r="1.5" cx="412" cy="429" opacity="0.48"></circle><circle r="1.5" cx="383" cy="427" opacity="0.68"></circle><circle r="1.5" cx="367" cy="402" opacity="0.71"></circle><circle r="1.5" cx="378" cy="374" opacity="0.17"></circle><circle r="1.5" cx="408" cy="366" opacity="0.31"></circle><circle r="1.5" cx="433" cy="386" opacity="0.99"></circle><circle r="1.5" cx="432" cy="419" opacity="0.62"></circle><circle r="1.5" cx="403" cy="438" opacity="0.46"></circle><circle r="1.5" cx="371" cy="426" opacity="0.25"></circle><circle r="1.5" cx="361" cy="391" opacity="0.88"></circle><circle r="1.5" cx="384" cy="363" opacity="0.65"></circle><circle r="1.5" cx="421" cy="364" opacity="0.21"></circle><circle r="1.5" cx="442" cy="396" opacity="0.91"></circle><circle r="1.5" cx="429" cy="432" opacity="0.51"></circle><circle r="1.5" cx="391" cy="444" opacity="0.73"></circle><circle r="1.5" cx="359" cy="419" opacity="0.72"></circle><circle r="1.5" cx="360" cy="377" opacity="0.96"></circle><circle r="1.5" cx="395" cy="353" opacity="0.10"></circle><circle r="1.5" cx="436" cy="367" opacity="0.28"></circle><circle r="1.5" cx="448" cy="410" opacity="0.68"></circle><circle r="1.5" cx="421" cy="445" opacity="0.26"></circle><circle r="1.5" cx="375" cy="445" opacity="0.53"></circle><circle r="1.5" cx="348" cy="406" opacity="0.87"></circle><circle r="1.5" cx="364" cy="361" opacity="0.74"></circle><circle r="1.5" cx="410" cy="347" opacity="0.41"></circle><circle r="1.5" cx="449" cy="376" opacity="0.19"></circle><circle r="1.5" cx="449" cy="426" opacity="0.63"></circle><circle r="1.5" cx="408" cy="456" opacity="0.93"></circle><circle r="1.5" cx="359" cy="440" opacity="0.71"></circle><circle r="1.5" cx="342" cy="390" opacity="0.55"></circle><circle r="1.5" cx="374" cy="347" opacity="0.83"></circle><circle r="1.5" cx="428" cy="346" opacity="0.64"></circle><circle r="2" cx="461" cy="391" opacity="0.66"></circle><circle r="2" cx="444" cy="444" opacity="0.97"></circle><circle r="2" cx="390" cy="462" opacity="0.69"></circle><circle r="2" cx="343" cy="429" opacity="0.82"></circle><circle r="2" cx="342" cy="371" opacity="0.82"></circle><circle r="2" cx="389" cy="335" opacity="0.25"></circle><circle r="2" cx="447" cy="352" opacity="0.29"></circle><circle r="2" cx="467" cy="410" opacity="1.00"></circle><circle r="2" cx="432" cy="461" opacity="0.96"></circle><circle r="2" cx="369" cy="463" opacity="0.93"></circle><circle r="2" cx="330" cy="412" opacity="0.86"></circle><circle r="2" cx="348" cy="350" opacity="0.96"></circle><circle r="2" cx="410" cy="328" opacity="0.22"></circle><circle r="2" cx="465" cy="365" opacity="0.88"></circle><circle r="2" cx="467" cy="432" opacity="0.33"></circle><circle r="2" cx="414" cy="474" opacity="0.74"></circle><circle r="2" cx="348" cy="456" opacity="0.22"></circle><circle r="2" cx="323" cy="390" opacity="0.94"></circle><circle r="2" cx="362" cy="332" opacity="0.99"></circle><circle r="2" cx="433" cy="328" opacity="0.95"></circle><circle r="2" cx="479" cy="384" opacity="0.61"></circle><circle r="2" cx="460" cy="455" opacity="0.87"></circle><circle r="2" cx="391" cy="482" opacity="0.76"></circle><circle r="2" cx="328" cy="441" opacity="0.14"></circle><circle r="2" cx="323" cy="366" opacity="0.27"></circle><circle r="2" cx="382" cy="317" opacity="0.70"></circle><circle r="2" cx="457" cy="336" opacity="0.64"></circle><circle r="2" cx="486" cy="409" opacity="0.73"></circle><circle r="2" cx="445" cy="476" opacity="0.22"></circle><circle r="2" cx="365" cy="481" opacity="0.21"></circle><circle r="2" cx="313" cy="420" opacity="0.25"></circle><circle r="2" cx="332" cy="341" opacity="0.68"></circle><circle r="2" cx="408" cy="309" opacity="0.11"></circle><circle r="2" cx="479" cy="352" opacity="0.44"></circle><circle r="2" cx="486" cy="436" opacity="0.82"></circle><circle r="2" cx="422" cy="492" opacity="0.64"></circle><circle r="2" cx="338" cy="473" opacity="0.91"></circle><circle r="2" cx="304" cy="393" opacity="0.91"></circle><circle r="2" cx="349" cy="318" opacity="0.73"></circle><circle r="2" cx="437" cy="309" opacity="0.88"></circle><circle r="2" cx="496" cy="376" opacity="0.30"></circle><circle r="2" cx="477" cy="464" opacity="0.20"></circle><circle r="2" cx="394" cy="501" opacity="0.64"></circle><circle r="2" cx="314" cy="455" opacity="0.93"></circle><circle r="2" cx="304" cy="363" opacity="0.12"></circle><circle r="2" cx="373" cy="300" opacity="0.89"></circle><circle r="2" cx="466" cy="319" opacity="0.19"></circle><circle r="2" cx="505" cy="405" opacity="0.55"></circle><circle r="2" cx="459" cy="489" opacity="0.63"></circle><circle r="2" cx="362" cy="501" opacity="0.29"></circle><circle r="2" cx="296" cy="429" opacity="0.45"></circle><circle r="2" cx="314" cy="332" opacity="0.84"></circle><circle r="2" cx="404" cy="290" opacity="0.75"></circle><circle r="2" cx="492" cy="338" opacity="0.80"></circle><circle r="2" cx="506" cy="438" opacity="0.20"></circle><circle r="2" cx="432" cy="509" opacity="0.86"></circle><circle r="2" cx="331" cy="490" opacity="0.48"></circle><circle r="2" cx="285" cy="397" opacity="0.88"></circle><circle r="2" cx="334" cy="305" opacity="0.32"></circle><circle r="2" cx="438" cy="290" opacity="0.61"></circle><circle r="2.5" cx="513" cy="365" opacity="0.65"></circle><circle r="2.5" cx="495" cy="471" opacity="0.95"></circle><circle r="2.5" cx="399" cy="520" opacity="0.87"></circle><circle r="2.5" cx="302" cy="470" opacity="0.32"></circle><circle r="2.5" cx="285" cy="362" opacity="0.50"></circle><circle r="2.5" cx="363" cy="283" opacity="0.39"></circle><circle r="2.5" cx="473" cy="300" opacity="0.79"></circle><circle r="2.5" cx="524" cy="400" opacity="0.62"></circle><circle r="2.5" cx="474" cy="501" opacity="0.45"></circle><circle r="2.5" cx="362" cy="520" opacity="0.19"></circle><circle r="2.5" cx="279" cy="440" opacity="0.66"></circle><circle r="2.5" cx="296" cy="326" opacity="0.99"></circle><circle r="2.5" cx="398" cy="271" opacity="0.89"></circle><circle r="2.5" cx="504" cy="322" opacity="0.63"></circle><circle r="2.5" cx="525" cy="438" opacity="0.86"></circle><circle r="2.5" cx="443" cy="525" opacity="0.75"></circle><circle r="2.5" cx="324" cy="509" opacity="0.88"></circle><circle r="2.5" cx="266" cy="403" opacity="0.69"></circle><circle r="2.5" cx="318" cy="293" opacity="0.40"></circle><circle r="2.5" cx="438" cy="270" opacity="0.69"></circle><circle r="2.5" cx="528" cy="354" opacity="0.55"></circle><circle r="2.5" cx="514" cy="477" opacity="0.27"></circle><circle r="2.5" cx="405" cy="538" opacity="0.15"></circle><circle r="2.5" cx="291" cy="486" opacity="0.66"></circle><circle r="2.5" cx="265" cy="362" opacity="0.52"></circle><circle r="2.5" cx="350" cy="268" opacity="0.71"></circle><circle r="2.5" cx="478" cy="281" opacity="0.45"></circle><circle r="2.5" cx="543" cy="393" opacity="0.59"></circle><circle r="2.5" cx="491" cy="512" opacity="1.00"></circle><circle r="2.5" cx="363" cy="540" opacity="0.59"></circle><circle r="2.5" cx="264" cy="453" opacity="0.98"></circle><circle r="2.5" cx="276" cy="321" opacity="0.72"></circle><circle r="2.5" cx="391" cy="252" opacity="0.88"></circle><circle r="2.5" cx="514" cy="305" opacity="0.23"></circle><circle r="2.5" cx="545" cy="437" opacity="0.48"></circle><circle r="2.5" cx="456" cy="540" opacity="0.71"></circle><circle r="2.5" cx="320" cy="529" opacity="0.46"></circle><circle r="2.5" cx="248" cy="411" opacity="0.11"></circle><circle r="2.5" cx="300" cy="283" opacity="0.64"></circle><circle r="2.5" cx="436" cy="250" opacity="0.28"></circle><circle r="2.5" cx="543" cy="340" opacity="0.78"></circle><circle r="2.5" cx="534" cy="481" opacity="0.14"></circle><circle r="2.5" cx="414" cy="557" opacity="0.80"></circle><circle r="2.5" cx="281" cy="504" opacity="0.78"></circle><circle r="2.5" cx="245" cy="365" opacity="0.69"></circle><circle r="2.5" cx="336" cy="253" opacity="0.76"></circle><circle r="2.5" cx="482" cy="261" opacity="0.76"></circle><circle r="2.5" cx="561" cy="384" opacity="0.86"></circle><circle r="2.5" cx="509" cy="521" opacity="0.27"></circle><circle r="2.5" cx="366" cy="560" opacity="0.92"></circle><circle r="2.5" cx="250" cy="467" opacity="0.96"></circle><circle r="2.5" cx="256" cy="318" opacity="0.79"></circle><circle r="2.5" cx="381" cy="234" opacity="0.72"></circle><circle r="2.5" cx="523" cy="287" opacity="0.15"></circle><circle r="2.5" cx="565" cy="433" opacity="0.53"></circle><circle r="2.5" cx="471" cy="554" opacity="0.42"></circle><circle r="2.5" cx="317" cy="549" opacity="0.47"></circle><circle r="2.5" cx="230" cy="421" opacity="0.39"></circle><circle r="2.5" cx="282" cy="275" opacity="0.97"></circle><circle r="3" cx="432" cy="230" opacity="0.48"></circle><circle r="3" cx="557" cy="325" opacity="0.67"></circle><circle r="3" cx="554" cy="483" opacity="0.98"></circle><circle r="3" cx="424" cy="574" opacity="0.92"></circle><circle r="3" cx="273" cy="523" opacity="0.26"></circle><circle r="3" cx="225" cy="369" opacity="0.11"></circle><circle r="3" cx="321" cy="240" opacity="0.65"></circle><circle r="3" cx="483" cy="241" opacity="0.69"></circle><circle r="3" cx="579" cy="373" opacity="0.31"></circle><circle r="3" cx="528" cy="529" opacity="0.17"></circle><circle r="3" cx="371" cy="580" opacity="0.29"></circle><circle r="3" cx="236" cy="483" opacity="0.28"></circle><circle r="3" cx="235" cy="317" opacity="0.23"></circle><circle r="3" cx="370" cy="217" opacity="0.16"></circle><circle r="3" cx="531" cy="267" opacity="0.96"></circle><circle r="3" cx="585" cy="428" opacity="0.92"></circle><circle r="3" cx="487" cy="567" opacity="0.52"></circle><circle r="3" cx="317" cy="570" opacity="0.81"></circle><circle r="3" cx="213" cy="433" opacity="0.53"></circle><circle r="3" cx="262" cy="267" opacity="0.17"></circle><circle r="3" cx="426" cy="210" opacity="0.16"></circle><circle r="3" cx="570" cy="308" opacity="0.20"></circle><circle r="3" cx="575" cy="483" opacity="0.27"></circle><circle r="3" cx="436" cy="592" opacity="0.90"></circle><circle r="3" cx="266" cy="543" opacity="0.46"></circle><circle r="3" cx="205" cy="376" opacity="0.59"></circle><circle r="3" cx="304" cy="227" opacity="0.99"></circle><circle r="3" cx="483" cy="220" opacity="0.83"></circle><circle r="3" cx="596" cy="361" opacity="0.34"></circle><circle r="3" cx="548" cy="535" opacity="0.69"></circle><circle r="3" cx="378" cy="600" opacity="0.90"></circle><circle r="3" cx="224" cy="501" opacity="0.80"></circle><circle r="3" cx="214" cy="317" opacity="0.81"></circle><circle r="3" cx="357" cy="200" opacity="0.17"></circle><circle r="3" cx="537" cy="247" opacity="0.44"></circle><circle r="3" cx="605" cy="420" opacity="0.86"></circle><circle r="3" cx="505" cy="578" opacity="0.15"></circle><circle r="3" cx="318" cy="591" opacity="0.66"></circle><circle r="3" cx="196" cy="446" opacity="0.75"></circle><circle r="3" cx="242" cy="262" opacity="0.21"></circle><circle r="3" cx="418" cy="190" opacity="0.25"></circle><circle r="3" cx="581" cy="290" opacity="0.49"></circle><circle r="3" cx="596" cy="482" opacity="0.86"></circle><circle r="3" cx="450" cy="608" opacity="0.87"></circle><circle r="3" cx="261" cy="564" opacity="0.79"></circle><circle r="3" cx="185" cy="384" opacity="0.11"></circle><circle r="3" cx="285" cy="216" opacity="0.45"></circle><circle r="3" cx="481" cy="198" opacity="0.46"></circle><circle r="3" cx="612" cy="346" opacity="0.61"></circle><circle r="3" cx="569" cy="540" opacity="0.66"></circle><circle r="3" cx="387" cy="620" opacity="0.52"></circle><circle r="3" cx="214" cy="519" opacity="0.57"></circle><circle r="3" cx="193" cy="320" opacity="0.84"></circle><circle r="3" cx="343" cy="184" opacity="0.97"></circle><circle r="3" cx="541" cy="226" opacity="0.70"></circle><circle r="3" cx="625" cy="411" opacity="0.72"></circle><circle r="3" cx="524" cy="589" opacity="0.57"></circle><circle r="3" cx="321" cy="612" opacity="0.73"></circle><circle r="3" cx="181" cy="461" opacity="0.97"></circle><circle r="3" cx="220" cy="259" opacity="0.32"></circle><circle r="3.5" cx="408" cy="170" opacity="0.19"></circle><circle r="3.5" cx="591" cy="271" opacity="0.12"></circle><circle r="3.5" cx="618" cy="478" opacity="0.97"></circle><circle r="3.5" cx="465" cy="623" opacity="0.55"></circle><circle r="3.5" cx="258" cy="585" opacity="0.67"></circle><circle r="3.5" cx="166" cy="394" opacity="0.56"></circle><circle r="3.5" cx="266" cy="207" opacity="0.31"></circle><circle r="3.5" cx="477" cy="177" opacity="0.52"></circle><circle r="3.5" cx="627" cy="330" opacity="0.51"></circle><circle r="3.5" cx="591" cy="543" opacity="0.34"></circle><circle r="3.5" cx="397" cy="639" opacity="0.60"></circle><circle r="3.5" cx="205" cy="539" opacity="0.28"></circle><circle r="3.5" cx="171" cy="324" opacity="0.28"></circle><circle r="3.5" cx="326" cy="170" opacity="0.34"></circle><circle r="3.5" cx="543" cy="204" opacity="0.20"></circle><circle r="3.5" cx="644" cy="400" opacity="0.92"></circle><circle r="3.5" cx="545" cy="597" opacity="0.47"></circle><circle r="3.5" cx="325" cy="634" opacity="0.36"></circle><circle r="3.5" cx="166" cy="478" opacity="0.30"></circle><circle r="3.5" cx="198" cy="257" opacity="0.45"></circle><circle r="3.5" cx="397" cy="152" opacity="0.21"></circle><circle r="3.5" cx="599" cy="250" opacity="0.50"></circle><circle r="3.5" cx="639" cy="473" opacity="0.35"></circle><circle r="3.5" cx="483" cy="637" opacity="0.35"></circle><circle r="3.5" cx="257" cy="607" opacity="0.13"></circle><circle r="3.5" cx="147" cy="407" opacity="0.79"></circle><circle r="3.5" cx="245" cy="199" opacity="0.27"></circle><circle r="3.5" cx="471" cy="155" opacity="0.79"></circle><circle r="3.5" cx="641" cy="313" opacity="0.97"></circle><circle r="3.5" cx="613" cy="543" opacity="0.65"></circle><circle r="3.5" cx="410" cy="658" opacity="0.28"></circle><circle r="3.5" cx="197" cy="561" opacity="0.67"></circle><circle r="3.5" cx="150" cy="330" opacity="0.73"></circle><circle r="3.5" cx="308" cy="156" opacity="0.44"></circle><circle r="3.5" cx="543" cy="181" opacity="0.56"></circle><circle r="3.5" cx="662" cy="387" opacity="0.35"></circle><circle r="3.5" cx="566" cy="605" opacity="0.40"></circle><circle r="3.5" cx="332" cy="656" opacity="0.94"></circle><circle r="3.5" cx="153" cy="497" opacity="0.83"></circle><circle r="3.5" cx="175" cy="257" opacity="0.12"></circle><circle r="3.5" cx="383" cy="133" opacity="0.28"></circle><circle r="3.5" cx="606" cy="228" opacity="0.41"></circle><circle r="3.5" cx="661" cy="466" opacity="0.28"></circle><circle r="3.5" cx="501" cy="650" opacity="0.35"></circle><circle r="3.5" cx="257" cy="630" opacity="0.91"></circle><circle r="3.5" cx="129" cy="420" opacity="0.55"></circle><circle r="3.5" cx="223" cy="192" opacity="0.65"></circle><circle r="3.5" cx="463" cy="134" opacity="0.73"></circle><circle r="3.5" cx="653" cy="294" opacity="0.55"></circle><circle r="3.5" cx="636" cy="542" opacity="0.91"></circle><circle r="3.5" cx="424" cy="676" opacity="0.70"></circle><circle r="3.5" cx="191" cy="583" opacity="0.64"></circle><circle r="3.5" cx="128" cy="339" opacity="0.46"></circle><circle r="3.5" cx="289" cy="144" opacity="0.45"></circle><circle r="3.5" cx="542" cy="158" opacity="0.24"></circle><circle r="3.5" cx="680" cy="372" opacity="0.19"></circle><circle r="3.5" cx="588" cy="610" opacity="0.70"></circle><circle r="3.5" cx="341" cy="677" opacity="0.19"></circle><circle r="3.5" cx="141" cy="516" opacity="0.28"></circle><circle r="3.5" cx="152" cy="259" opacity="0.16"></circle><circle r="4" cx="368" cy="116" opacity="0.51"></circle><circle r="4" cx="611" cy="206" opacity="0.26"></circle><circle r="4" cx="682" cy="456" opacity="0.53"></circle><circle r="4" cx="522" cy="662" opacity="0.80"></circle><circle r="4" cx="260" cy="654" opacity="0.40"></circle><circle r="4" cx="112" cy="436" opacity="0.83"></circle><circle r="4" cx="200" cy="188" opacity="0.99"></circle><circle r="4" cx="454" cy="112" opacity="0.27"></circle><circle r="4" cx="665" cy="273" opacity="0.74"></circle><circle r="4" cx="659" cy="540" opacity="0.13"></circle><circle r="4" cx="440" cy="693" opacity="0.70"></circle><circle r="4" cx="187" cy="606" opacity="0.44"></circle><circle r="4" cx="107" cy="349" opacity="0.47"></circle><circle r="4" cx="268" cy="133" opacity="0.24"></circle><circle r="4" cx="538" cy="135" opacity="0.75"></circle><circle r="4" cx="697" cy="355" opacity="0.18"></circle><circle r="4" cx="612" cy="614" opacity="0.41"></circle><circle r="4" cx="352" cy="698" opacity="0.27"></circle><circle r="4" cx="130" cy="538" opacity="0.89"></circle><circle r="4" cx="129" cy="263" opacity="0.63"></circle><circle r="4" cx="351" cy="99" opacity="0.35"></circle><circle r="4" cx="615" cy="182" opacity="0.72"></circle><circle r="4" cx="703" cy="445" opacity="0.59"></circle><circle r="4" cx="543" cy="672" opacity="0.32"></circle><circle r="4" cx="264" cy="677" opacity="0.22"></circle><circle r="4" cx="95" cy="454" opacity="0.73"></circle><circle r="4" cx="176" cy="185" opacity="0.18"></circle><circle r="4" cx="442" cy="91" opacity="0.53"></circle><circle r="4" cx="675" cy="251" opacity="0.37"></circle><circle r="4" cx="683" cy="535" opacity="0.41"></circle><circle r="4" cx="458" cy="709" opacity="0.23"></circle><circle r="4" cx="184" cy="630" opacity="0.48"></circle><circle r="4" cx="86" cy="361" opacity="0.75"></circle><circle r="4" cx="246" cy="123" opacity="0.17"></circle><circle r="4" cx="533" cy="111" opacity="0.19"></circle><circle r="4" cx="713" cy="337" opacity="0.26"></circle><circle r="4" cx="636" cy="616" opacity="0.95"></circle><circle r="4" cx="365" cy="719" opacity="0.63"></circle><circle r="4" cx="121" cy="560" opacity="0.36"></circle><circle r="4" cx="105" cy="269" opacity="0.18"></circle><circle r="4" cx="332" cy="84" opacity="0.36"></circle><circle r="4" cx="616" cy="158" opacity="0.34"></circle><circle r="4" cx="724" cy="432" opacity="0.38"></circle><circle r="4" cx="566" cy="681" opacity="0.26"></circle><circle r="4" cx="270" cy="701" opacity="0.13"></circle><circle r="4" cx="80" cy="473" opacity="0.74"></circle><circle r="4" cx="152" cy="184" opacity="0.59"></circle><circle r="4" cx="428" cy="71" opacity="0.54"></circle><circle r="4" cx="683" cy="228" opacity="0.89"></circle><circle r="4" cx="707" cy="528" opacity="0.75"></circle><circle r="4" cx="478" cy="724" opacity="0.95"></circle><circle r="4" cx="184" cy="655" opacity="0.81"></circle><circle r="4" cx="66" cy="376" opacity="0.95"></circle><circle r="4" cx="222" cy="115" opacity="0.24"></circle><circle r="4" cx="526" cy="87" opacity="0.12"></circle><circle r="4" cx="727" cy="317" opacity="0.80"></circle><circle r="4" cx="661" cy="616" opacity="0.44"></circle><circle r="4" cx="380" cy="739" opacity="0.34"></circle><circle r="4" cx="113" cy="584" opacity="0.82"></circle><circle r="4.5" cx="82" cy="277" opacity="0.60"></circle><circle r="4.5" cx="312" cy="69" opacity="0.41"></circle><circle r="4.5" cx="616" cy="133" opacity="0.41"></circle><circle r="4.5" cx="744" cy="417" opacity="0.47"></circle><circle r="4.5" cx="590" cy="688" opacity="0.42"></circle><circle r="4.5" cx="279" cy="724" opacity="0.77"></circle><circle r="4.5" cx="66" cy="494" opacity="0.83"></circle><circle r="4.5" cx="126" cy="185" opacity="0.15"></circle><circle r="4.5" cx="412" cy="51" opacity="0.53"></circle><circle r="4.5" cx="690" cy="204" opacity="0.39"></circle><circle r="4.5" cx="730" cy="519" opacity="0.46"></circle><circle r="4.5" cx="499" cy="738" opacity="0.91"></circle><circle r="4.5" cx="185" cy="680" opacity="0.35"></circle><circle r="4.5" cx="46" cy="392" opacity="0.42"></circle><circle r="4.5" cx="198" cy="109" opacity="0.54"></circle><circle r="4.5" cx="516" cy="64" opacity="0.29"></circle><circle r="4.5" cx="741" cy="295" opacity="0.20"></circle><circle r="4.5" cx="686" cy="614" opacity="0.51"></circle><circle r="4.5" cx="396" cy="758" opacity="0.34"></circle><circle r="4.5" cx="108" cy="609" opacity="0.59"></circle><circle r="4.5" cx="58" cy="287" opacity="0.77"></circle><circle r="4.5" cx="290" cy="56" opacity="0.84"></circle><circle r="4.5" cx="613" cy="107" opacity="0.17"></circle><circle r="4.5" cx="763" cy="399" opacity="0.45"></circle><circle r="4.5" cx="615" cy="694" opacity="0.39"></circle><circle r="4.5" cx="289" cy="748" opacity="0.67"></circle><circle r="4.5" cx="53" cy="516" opacity="0.33"></circle><circle r="4.5" cx="101" cy="188" opacity="0.70"></circle><circle r="4.5" cx="395" cy="32" opacity="0.48"></circle><circle r="4.5" cx="695" cy="178" opacity="0.48"></circle><circle r="4.5" cx="754" cy="508" opacity="0.71"></circle><circle r="4.5" cx="522" cy="750" opacity="0.61"></circle><circle r="4.5" cx="189" cy="706" opacity="0.54"></circle><circle r="4.5" cx="28" cy="410" opacity="0.10"></circle><circle r="4.5" cx="172" cy="104" opacity="0.46"></circle><circle r="4.5" cx="505" cy="40" opacity="0.59"></circle><circle r="4.5" cx="753" cy="272" opacity="0.61"></circle><circle r="4.5" cx="712" cy="610" opacity="0.15"></circle><circle r="4.5" cx="415" cy="777" opacity="0.77"></circle><circle r="4.5" cx="103" cy="635" opacity="0.23"></circle><circle r="4.5" cx="35" cy="299" opacity="0.73"></circle><circle r="4.5" cx="266" cy="44" opacity="1.00"></circle><circle r="4.5" cx="609" cy="81" opacity="0.78"></circle><circle r="4.5" cx="781" cy="380" opacity="0.79"></circle><circle r="4.5" cx="641" cy="697" opacity="0.47"></circle><circle r="4.5" cx="302" cy="771" opacity="0.36"></circle><circle r="4.5" cx="42" cy="540" opacity="0.38"></circle><circle r="4.5" cx="75" cy="193" opacity="0.13"></circle><circle r="4.5" cx="375" cy="14" opacity="0.86"></circle><circle r="4.5" cx="698" cy="152" opacity="0.86"></circle><circle r="4.5" cx="777" cy="495" opacity="0.19"></circle><circle r="4.5" cx="546" cy="761" opacity="0.98"></circle><circle r="4.5" cx="194" cy="732" opacity="0.17"></circle><circle r="4.5" cx="10" cy="430" opacity="0.66"></circle><circle r="4.5" cx="145" cy="102" opacity="0.33"></circle><circle r="4.5" cx="491" cy="17" opacity="0.46"></circle><circle r="4.5" cx="763" cy="247" opacity="0.93"></circle><circle r="4.5" cx="738" cy="604" opacity="0.89"></circle><circle r="4.5" cx="435" cy="794" opacity="0.72"></circle><circle r="4.5" cx="101" cy="661" opacity="0.12"></circle><circle r="5" cx="12" cy="313" opacity="0.12"></circle><circle r="5" cx="241" cy="34" opacity="0.28"></circle><circle r="5" cx="602" cy="55" opacity="0.99"></circle><circle r="5" cx="799" cy="360" opacity="0.52"></circle><circle r="5" cx="668" cy="699" opacity="0.23"></circle><circle r="5" cx="317" cy="794" opacity="0.97"></circle><circle r="5" cx="32" cy="565" opacity="0.92"></circle><circle r="5" cx="49" cy="200" opacity="0.91"></circle><circle r="5" cx="354" cy="-3" opacity="0.66"></circle><circle r="5" cx="699" cy="125" opacity="0.17"></circle><circle r="5" cx="800" cy="479" opacity="0.99"></circle><circle r="5" cx="572" cy="770" opacity="0.28"></circle><circle r="5" cx="202" cy="758" opacity="0.77"></circle><circle r="5" cx="-7" cy="451" opacity="0.90"></circle><circle r="5" cx="118" cy="101" opacity="0.85"></circle><circle r="5" cx="475" cy="-5" opacity="0.42"></circle><circle r="5" cx="772" cy="221" opacity="0.48"></circle><circle r="5" cx="765" cy="596" opacity="0.86"></circle><circle r="5" cx="457" cy="811" opacity="0.17"></circle><circle r="5" cx="101" cy="689" opacity="0.49"></circle><circle r="5" cx="-11" cy="329" opacity="0.89"></circle><circle r="5" cx="215" cy="26" opacity="0.95"></circle><circle r="5" cx="594" cy="29" opacity="0.76"></circle><circle r="5" cx="815" cy="337" opacity="0.19"></circle><circle r="5" cx="696" cy="699" opacity="0.97"></circle><circle r="5" cx="333" cy="816" opacity="0.26"></circle><circle r="5" cx="24" cy="592" opacity="0.87"></circle><circle r="5" cx="22" cy="209" opacity="0.63"></circle><circle r="5" cx="331" cy="-19" opacity="0.75"></circle><circle r="5" cx="698" cy="97" opacity="0.14"></circle><circle r="5" cx="822" cy="462" opacity="0.89"></circle><circle r="5" cx="599" cy="778" opacity="0.69"></circle><circle r="5" cx="212" cy="784" opacity="0.47"></circle><circle r="5" cx="-22" cy="475" opacity="0.24"></circle><circle r="5" cx="90" cy="102" opacity="0.20"></circle><circle r="5" cx="458" cy="-27" opacity="0.53"></circle><circle r="5" cx="780" cy="194" opacity="0.99"></circle><circle r="5" cx="791" cy="586" opacity="0.13"></circle><circle r="5" cx="481" cy="826" opacity="0.38"></circle><circle r="5" cx="103" cy="717" opacity="0.43"></circle><circle r="5" cx="-32" cy="347" opacity="0.60"></circle><circle r="5" cx="187" cy="19" opacity="0.78"></circle><circle r="5" cx="583" cy="3" opacity="0.15"></circle><circle r="5" cx="830" cy="313" opacity="0.55"></circle><circle r="5" cx="724" cy="696" opacity="0.72"></circle><circle r="5" cx="352" cy="838" opacity="0.84"></circle><circle r="5" cx="17" cy="620" opacity="0.54"></circle><circle r="5" cx="-4" cy="220" opacity="0.50"></circle><circle r="5" cx="307" cy="-33" opacity="0.64"></circle><circle r="5" cx="695" cy="69" opacity="0.76"></circle><circle r="5" cx="843" cy="443" opacity="0.21"></circle><circle r="5" cx="627" cy="784" opacity="0.68"></circle><circle r="5" cx="223" cy="810" opacity="0.15"></circle><circle r="5" cx="-36" cy="500" opacity="0.63"></circle><circle r="5" cx="61" cy="106" opacity="0.68"></circle><circle r="5" cx="438" cy="-48" opacity="0.91"></circle><circle r="5" cx="785" cy="166" opacity="0.47"></circle><circle r="5" cx="817" cy="573" opacity="0.47"></circle><circle r="5" cx="506" cy="840" opacity="0.90"></circle><circle r="5.5" cx="107" cy="746" opacity="0.84"></circle><circle r="5.5" cx="-53" cy="367" opacity="0.27"></circle><circle r="5.5" cx="159" cy="14" opacity="0.38"></circle><circle r="5.5" cx="570" cy="-23" opacity="0.10"></circle><circle r="5.5" cx="843" cy="287" opacity="0.63"></circle><circle r="5.5" cx="753" cy="692" opacity="0.69"></circle><circle r="5.5" cx="373" cy="858" opacity="0.31"></circle><circle r="5.5" cx="13" cy="649" opacity="0.63"></circle><circle r="5.5" cx="-30" cy="234" opacity="0.60"></circle><circle r="5.5" cx="280" cy="-46" opacity="0.97"></circle><circle r="5.5" cx="690" cy="40" opacity="0.74"></circle><circle r="5.5" cx="863" cy="422" opacity="0.74"></circle><circle r="5.5" cx="656" cy="788" opacity="0.96"></circle><circle r="5.5" cx="237" cy="836" opacity="0.99"></circle><circle r="5.5" cx="-49" cy="526" opacity="0.40"></circle><circle r="5.5" cx="32" cy="111" opacity="0.43"></circle><circle r="5.5" cx="416" cy="-68" opacity="0.22"></circle><circle r="5.5" cx="789" cy="137" opacity="0.61"></circle><circle r="5.5" cx="843" cy="559" opacity="0.57"></circle><circle r="5.5" cx="533" cy="852" opacity="0.87"></circle><circle r="5.5" cx="113" cy="775" opacity="0.87"></circle><circle r="5.5" cx="-73" cy="389" opacity="0.40"></circle><circle r="5.5" cx="129" cy="11" opacity="0.21"></circle><circle r="5.5" cx="555" cy="-49" opacity="0.69"></circle><circle r="5.5" cx="855" cy="260" opacity="0.93"></circle><circle r="5.5" cx="782" cy="685" opacity="0.43"></circle><circle r="5.5" cx="395" cy="878" opacity="0.49"></circle><circle r="5.5" cx="10" cy="678" opacity="0.57"></circle><circle r="5.5" cx="-55" cy="249" opacity="0.96"></circle><circle r="5.5" cx="253" cy="-58" opacity="0.77"></circle><circle r="5.5" cx="683" cy="11" opacity="0.37"></circle><circle r="5.5" cx="883" cy="399" opacity="0.44"></circle><circle r="5.5" cx="686" cy="790" opacity="0.59"></circle><circle r="5.5" cx="254" cy="862" opacity="0.43"></circle><circle r="5.5" cx="-60" cy="554" opacity="0.11"></circle><circle r="5.5" cx="3" cy="119" opacity="0.82"></circle><circle r="5.5" cx="393" cy="-87" opacity="0.73"></circle><circle r="5.5" cx="790" cy="106" opacity="0.70"></circle><circle r="5.5" cx="868" cy="542" opacity="0.48"></circle><circle r="5.5" cx="562" cy="863" opacity="0.87"></circle><circle r="5.5" cx="121" cy="804" opacity="0.96"></circle><circle r="5.5" cx="-92" cy="413" opacity="0.76"></circle><circle r="5.5" cx="99" cy="10" opacity="0.82"></circle><circle r="5.5" cx="538" cy="-74" opacity="0.40"></circle><circle r="5.5" cx="865" cy="231" opacity="0.84"></circle><circle r="5.5" cx="811" cy="676" opacity="0.28"></circle><circle r="5.5" cx="419" cy="896" opacity="0.42"></circle><circle r="5.5" cx="10" cy="709" opacity="0.62"></circle><circle r="5.5" cx="-80" cy="267" opacity="0.87"></circle><circle r="5.5" cx="224" cy="-67" opacity="0.60"></circle><circle r="5.5" cx="674" cy="-19" opacity="0.96"></circle><circle r="5.5" cx="901" cy="374" opacity="0.73"></circle><circle r="5.5" cx="717" cy="790" opacity="0.51"></circle><circle r="5.5" cx="272" cy="887" opacity="0.82"></circle><circle r="5.5" cx="-69" cy="584" opacity="0.50"></circle><circle r="5.5" cx="-26" cy="129" opacity="0.89"></circle><circle r="5.5" cx="368" cy="-105" opacity="0.19"></circle><circle r="5.5" cx="789" cy="75" opacity="0.69"></circle><circle r="5.5" cx="893" cy="523" opacity="0.91"></circle><circle r="5.5" cx="591" cy="871" opacity="0.64"></circle><circle r="6" cx="132" cy="833" opacity="0.22"></circle><circle r="6" cx="-109" cy="439" opacity="0.87"></circle><circle r="6" cx="68" cy="11" opacity="0.60"></circle><circle r="6" cx="518" cy="-99" opacity="0.25"></circle><circle r="6" cx="873" cy="201" opacity="0.38"></circle><circle r="6" cx="841" cy="665" opacity="0.65"></circle><circle r="6" cx="446" cy="913" opacity="0.38"></circle><circle r="6" cx="12" cy="740" opacity="0.47"></circle><circle r="6" cx="-105" cy="287" opacity="0.29"></circle><circle r="6" cx="193" cy="-75" opacity="0.30"></circle><circle r="6" cx="662" cy="-48" opacity="0.68"></circle><circle r="6" cx="917" cy="347" opacity="0.12"></circle><circle r="6" cx="748" cy="788" opacity="0.89"></circle><circle r="6" cx="292" cy="911" opacity="0.42"></circle><circle r="6" cx="-77" cy="615" opacity="0.73"></circle><circle r="6" cx="-55" cy="141" opacity="0.66"></circle><circle r="6" cx="341" cy="-121" opacity="0.22"></circle><circle r="6" cx="787" cy="44" opacity="0.90"></circle><circle r="6" cx="917" cy="502" opacity="0.26"></circle><circle r="6" cx="622" cy="878" opacity="0.19"></circle><circle r="6" cx="144" cy="863" opacity="0.94"></circle><circle r="6" cx="-125" cy="467" opacity="0.67"></circle><circle r="6" cx="36" cy="14" opacity="0.22"></circle><circle r="6" cx="497" cy="-123" opacity="0.66"></circle><circle r="6" cx="880" cy="170" opacity="0.98"></circle><circle r="6" cx="870" cy="652" opacity="0.14"></circle><circle r="6" cx="474" cy="929" opacity="0.71"></circle><circle r="6" cx="15" cy="772" opacity="0.59"></circle><circle r="6" cx="-128" cy="309" opacity="0.99"></circle><circle r="6" cx="162" cy="-81" opacity="0.96"></circle><circle r="6" cx="648" cy="-77" opacity="0.48"></circle><circle r="6" cx="933" cy="319" opacity="0.13"></circle><circle r="6" cx="780" cy="783" opacity="0.25"></circle><circle r="6" cx="315" cy="934" opacity="0.87"></circle><circle r="6" cx="-82" cy="646" opacity="0.65"></circle><circle r="6" cx="-84" cy="155" opacity="0.16"></circle><circle r="6" cx="312" cy="-136" opacity="0.41"></circle><circle r="6" cx="782" cy="12" opacity="0.56"></circle><circle r="6" cx="940" cy="479" opacity="0.66"></circle><circle r="6" cx="655" cy="883" opacity="0.35"></circle><circle r="6" cx="159" cy="892" opacity="0.84"></circle><circle r="6" cx="-140" cy="496" opacity="0.15"></circle><circle r="6" cx="4" cy="20" opacity="0.14"></circle><circle r="6" cx="473" cy="-145" opacity="0.41"></circle><circle r="6" cx="884" cy="137" opacity="1.00"></circle><circle r="6" cx="899" cy="637" opacity="0.53"></circle><circle r="6" cx="503" cy="943" opacity="0.54"></circle><circle r="6" cx="22" cy="805" opacity="0.73"></circle><circle r="6" cx="-151" cy="333" opacity="0.41"></circle><circle r="6" cx="129" cy="-85" opacity="0.81"></circle><circle r="6" cx="632" cy="-106" opacity="0.95"></circle><circle r="6" cx="947" cy="289" opacity="0.41"></circle><circle r="6" cx="813" cy="777" opacity="0.69"></circle><circle r="6" cx="339" cy="956" opacity="0.98"></circle><circle r="6" cx="-86" cy="679" opacity="0.44"></circle><circle r="6" cx="-113" cy="172" opacity="0.12"></circle><circle r="6" cx="281" cy="-150" opacity="0.30"></circle><circle r="6" cx="775" cy="-21" opacity="0.52"></circle><circle r="6" cx="962" cy="454" opacity="0.90"></circle><circle r="6" cx="688" cy="886" opacity="0.68"></circle><circle r="6.5" cx="177" cy="920" opacity="0.57"></circle><circle r="6.5" cx="-153" cy="527" opacity="0.83"></circle><circle r="6.5" cx="-29" cy="28" opacity="0.76"></circle><circle r="6.5" cx="448" cy="-167" opacity="0.71"></circle><circle r="6.5" cx="887" cy="104" opacity="0.11"></circle><circle r="6.5" cx="927" cy="619" opacity="0.93"></circle><circle r="6.5" cx="535" cy="956" opacity="0.22"></circle><circle r="6.5" cx="30" cy="837" opacity="0.12"></circle><circle r="6.5" cx="-172" cy="359" opacity="0.34"></circle><circle r="6.5" cx="95" cy="-87" opacity="0.68"></circle><circle r="6.5" cx="614" cy="-134" opacity="0.48"></circle><circle r="6.5" cx="959" cy="257" opacity="0.63"></circle><circle r="6.5" cx="845" cy="768" opacity="0.28"></circle><circle r="6.5" cx="366" cy="977" opacity="0.92"></circle><circle r="6.5" cx="-87" cy="713" opacity="0.32"></circle><circle r="6.5" cx="-141" cy="191" opacity="0.31"></circle><circle r="6.5" cx="249" cy="-161" opacity="0.87"></circle><circle r="6.5" cx="765" cy="-53" opacity="0.44"></circle><circle r="6.5" cx="982" cy="427" opacity="0.76"></circle><circle r="6.5" cx="722" cy="887" opacity="0.59"></circle><circle r="6.5" cx="196" cy="948" opacity="0.94"></circle><circle r="6.5" cx="-164" cy="559" opacity="0.74"></circle><circle r="6.5" cx="-62" cy="38" opacity="0.82"></circle><circle r="6.5" cx="420" cy="-187" opacity="0.36"></circle><circle r="6.5" cx="887" cy="69" opacity="0.71"></circle><circle r="6.5" cx="955" cy="599" opacity="0.82"></circle><circle r="6.5" cx="567" cy="966" opacity="0.69"></circle><circle r="6.5" cx="41" cy="870" opacity="0.63"></circle><circle r="6.5" cx="-192" cy="387" opacity="0.89"></circle><circle r="6.5" cx="61" cy="-87" opacity="0.40"></circle><circle r="6.5" cx="593" cy="-162" opacity="0.35"></circle><circle r="6.5" cx="969" cy="224" opacity="0.44"></circle><circle r="6.5" cx="878" cy="756" opacity="0.30"></circle><circle r="6.5" cx="394" cy="997" opacity="0.88"></circle><circle r="6.5" cx="-86" cy="748" opacity="0.96"></circle><circle r="6.5" cx="-169" cy="212" opacity="0.97"></circle><circle r="6.5" cx="216" cy="-171" opacity="0.51"></circle><circle r="6.5" cx="753" cy="-86" opacity="0.49"></circle><circle r="6.5" cx="1002" cy="398" opacity="0.81"></circle><circle r="6.5" cx="757" cy="886" opacity="0.33"></circle><circle r="6.5" cx="218" cy="976" opacity="1.00"></circle><circle r="6.5" cx="-173" cy="593" opacity="0.75"></circle><circle r="6.5" cx="-94" cy="50" opacity="0.76"></circle><circle r="6.5" cx="391" cy="-207" opacity="0.49"></circle><circle r="6.5" cx="885" cy="34" opacity="0.22"></circle><circle r="6.5" cx="982" cy="576" opacity="0.23"></circle><circle r="6.5" cx="601" cy="975" opacity="0.60"></circle><circle r="6.5" cx="54" cy="903" opacity="0.52"></circle><circle r="6.5" cx="-211" cy="417" opacity="0.69"></circle><circle r="6.5" cx="26" cy="-84" opacity="0.60"></circle><circle r="6.5" cx="571" cy="-189" opacity="0.84"></circle><circle r="6.5" cx="977" cy="190" opacity="0.30"></circle><circle r="6.5" cx="911" cy="743" opacity="0.71"></circle><circle r="6.5" cx="424" cy="1016" opacity="0.35"></circle><circle r="6.5" cx="-83" cy="783" opacity="0.14"></circle><circle r="6.5" cx="-196" cy="236" opacity="0.88"></circle><circle r="6.5" cx="181" cy="-179" opacity="0.42"></circle><circle r="6.5" cx="739" cy="-119" opacity="0.76"></circle><circle r="6.5" cx="1020" cy="368" opacity="0.11"></circle><circle r="7" cx="792" cy="882" opacity="0.85"></circle><circle r="7" cx="242" cy="1002" opacity="0.94"></circle><circle r="7" cx="-180" cy="628" opacity="0.32"></circle><circle r="7" cx="-127" cy="65" opacity="0.75"></circle><circle r="7" cx="360" cy="-224" opacity="0.84"></circle><circle r="7" cx="881" cy="-1" opacity="0.32"></circle><circle r="7" cx="1009" cy="552" opacity="0.64"></circle><circle r="7" cx="637" cy="982" opacity="0.22"></circle><circle r="7" cx="69" cy="935" opacity="0.21"></circle><circle r="7" cx="-228" cy="448" opacity="0.54"></circle><circle r="7" cx="-10" cy="-79" opacity="0.44"></circle><circle r="7" cx="545" cy="-215" opacity="0.48"></circle><circle r="7" cx="983" cy="154" opacity="0.82"></circle><circle r="7" cx="943" cy="727" opacity="0.32"></circle><circle r="7" cx="457" cy="1032" opacity="0.62"></circle><circle r="7" cx="-78" cy="819" opacity="0.79"></circle><circle r="7" cx="-221" cy="261" opacity="0.45"></circle><circle r="7" cx="145" cy="-185" opacity="0.27"></circle><circle r="7" cx="722" cy="-151" opacity="0.58"></circle><circle r="7" cx="1036" cy="335" opacity="0.27"></circle><circle r="7" cx="828" cy="876" opacity="0.92"></circle><circle r="7" cx="268" cy="1028" opacity="0.75"></circle><circle r="7" cx="-186" cy="664" opacity="0.73"></circle><circle r="7" cx="-159" cy="82" opacity="0.41"></circle><circle r="7" cx="327" cy="-240" opacity="0.75"></circle><circle r="7" cx="874" cy="-37" opacity="0.83"></circle><circle r="7" cx="1034" cy="525" opacity="0.91"></circle><circle r="7" cx="673" cy="987" opacity="0.58"></circle><circle r="7" cx="87" cy="967" opacity="0.52"></circle><circle r="7" cx="-244" cy="482" opacity="0.11"></circle><circle r="7" cx="-46" cy="-72" opacity="0.96"></circle><circle r="7" cx="518" cy="-240" opacity="0.93"></circle><circle r="7" cx="987" cy="118" opacity="0.78"></circle><circle r="7" cx="975" cy="708" opacity="0.69"></circle><circle r="7" cx="490" cy="1047" opacity="0.88"></circle><circle r="7" cx="-70" cy="855" opacity="0.70"></circle><circle r="7" cx="-246" cy="289" opacity="0.92"></circle><circle r="7" cx="108" cy="-188" opacity="0.47"></circle><circle r="7" cx="703" cy="-183" opacity="0.63"></circle><circle r="7" cx="1051" cy="301" opacity="0.23"></circle><circle r="7" cx="865" cy="868" opacity="0.63"></circle><circle r="7" cx="296" cy="1052" opacity="0.21"></circle><circle r="7" cx="-189" cy="701" opacity="0.69"></circle><circle r="7" cx="-191" cy="102" opacity="0.42"></circle><circle r="7" cx="292" cy="-254" opacity="0.61"></circle><circle r="7" cx="865" cy="-74" opacity="0.87"></circle><circle r="7" cx="1058" cy="496" opacity="0.46"></circle><circle r="7" cx="711" cy="989" opacity="0.25"></circle><circle r="7" cx="107" cy="999" opacity="0.58"></circle><circle r="7" cx="-257" cy="517" opacity="0.67"></circle><circle r="7" cx="-83" cy="-63" opacity="0.61"></circle><circle r="7" cx="489" cy="-264" opacity="0.60"></circle><circle r="7" cx="989" cy="80" opacity="0.37"></circle><circle r="7" cx="1007" cy="687" opacity="0.91"></circle><circle r="7" cx="526" cy="1060" opacity="0.56"></circle><circle r="7" cx="-60" cy="892" opacity="0.92"></circle><circle r="7" cx="-269" cy="319" opacity="0.50"></circle><circle r="7" cx="70" cy="-189" opacity="0.17"></circle><circle r="7" cx="682" cy="-215" opacity="0.53"></circle><circle r="7" cx="1063" cy="265" opacity="0.43"></circle><circle r="7.5" cx="901" cy="857" opacity="0.78"></circle><circle r="7.5" cx="327" cy="1075" opacity="0.12"></circle><circle r="7.5" cx="-189" cy="739" opacity="0.19"></circle><circle r="7.5" cx="-222" cy="124" opacity="0.29"></circle><circle r="7.5" cx="256" cy="-266" opacity="0.31"></circle><circle r="7.5" cx="854" cy="-110" opacity="0.59"></circle><circle r="7.5" cx="1081" cy="466" opacity="0.17"></circle><circle r="7.5" cx="749" cy="989" opacity="0.48"></circle><circle r="7.5" cx="130" cy="1030" opacity="0.76"></circle><circle r="7.5" cx="-269" cy="554" opacity="0.75"></circle><circle r="7.5" cx="-119" cy="-50" opacity="0.51"></circle><circle r="7.5" cx="457" cy="-286" opacity="0.18"></circle><circle r="7.5" cx="989" cy="41" opacity="0.40"></circle><circle r="7.5" cx="1038" cy="664" opacity="0.62"></circle><circle r="7.5" cx="563" cy="1072" opacity="0.29"></circle><circle r="7.5" cx="-47" cy="928" opacity="0.31"></circle><circle r="7.5" cx="-291" cy="351" opacity="0.66"></circle><circle r="7.5" cx="32" cy="-188" opacity="0.66"></circle><circle r="7.5" cx="658" cy="-245" opacity="0.93"></circle><circle r="7.5" cx="1074" cy="228" opacity="0.53"></circle><circle r="7.5" cx="938" cy="843" opacity="0.73"></circle><circle r="7.5" cx="359" cy="1097" opacity="0.75"></circle><circle r="7.5" cx="-188" cy="778" opacity="0.84"></circle><circle r="7.5" cx="-253" cy="148" opacity="0.80"></circle><circle r="7.5" cx="218" cy="-277" opacity="1.00"></circle><circle r="7.5" cx="840" cy="-147" opacity="0.61"></circle><circle r="7.5" cx="1102" cy="433" opacity="0.74"></circle><circle r="7.5" cx="788" cy="987" opacity="0.51"></circle><circle r="7.5" cx="155" cy="1060" opacity="0.28"></circle><circle r="7.5" cx="-279" cy="592" opacity="0.65"></circle><circle r="7.5" cx="-156" cy="-36" opacity="0.25"></circle><circle r="7.5" cx="424" cy="-307" opacity="0.10"></circle><circle r="7.5" cx="986" cy="2" opacity="0.51"></circle><circle r="7.5" cx="1068" cy="639" opacity="0.15"></circle><circle r="7.5" cx="601" cy="1081" opacity="0.90"></circle><circle r="7.5" cx="-32" cy="965" opacity="0.44"></circle><circle r="7.5" cx="-312" cy="385" opacity="0.61"></circle><circle r="7.5" cx="-8" cy="-185" opacity="0.25"></circle><circle r="7.5" cx="632" cy="-275" opacity="0.12"></circle><circle r="7.5" cx="1083" cy="189" opacity="0.42"></circle><circle r="7.5" cx="974" cy="827" opacity="0.17"></circle><circle r="7.5" cx="393" cy="1117" opacity="0.22"></circle><circle r="7.5" cx="-183" cy="818" opacity="0.12"></circle><circle r="7.5" cx="-282" cy="175" opacity="0.39"></circle><circle r="7.5" cx="179" cy="-285" opacity="0.52"></circle><circle r="7.5" cx="823" cy="-183" opacity="0.55"></circle><circle r="7.5" cx="1121" cy="398" opacity="0.41"></circle><circle r="7.5" cx="828" cy="982" opacity="0.48"></circle><circle r="7.5" cx="182" cy="1090" opacity="0.45"></circle><circle r="7.5" cx="-286" cy="631" opacity="0.28"></circle><circle r="7.5" cx="-192" cy="-18" opacity="0.41"></circle><circle r="7.5" cx="389" cy="-326" opacity="0.80"></circle><circle r="7.5" cx="980" cy="-38" opacity="0.33"></circle><circle r="7.5" cx="1097" cy="611" opacity="0.25"></circle><circle r="7.5" cx="641" cy="1088" opacity="0.36"></circle><circle r="7.5" cx="-14" cy="1001" opacity="0.89"></circle><circle r="7.5" cx="-330" cy="420" opacity="0.48"></circle><circle r="7.5" cx="-48" cy="-179" opacity="0.96"></circle><circle r="7.5" cx="603" cy="-304" opacity="0.23"></circle><circle r="8" cx="1089" cy="149" opacity="0.55"></circle><circle r="8" cx="1010" cy="809" opacity="0.75"></circle><circle r="8" cx="430" cy="1135" opacity="0.76"></circle><circle r="8" cx="-177" cy="858" opacity="0.33"></circle><circle r="8" cx="-311" cy="204" opacity="0.18"></circle><circle r="8" cx="139" cy="-290" opacity="0.30"></circle><circle r="8" cx="804" cy="-219" opacity="0.22"></circle><circle r="8" cx="1139" cy="361" opacity="0.85"></circle><circle r="8" cx="868" cy="975" opacity="0.24"></circle><circle r="8" cx="212" cy="1118" opacity="0.88"></circle><circle r="8" cx="-291" cy="672" opacity="0.36"></circle><circle r="8" cx="-228" cy="1" opacity="0.37"></circle><circle r="8" cx="352" cy="-343" opacity="0.24"></circle><circle r="8" cx="972" cy="-78" opacity="0.92"></circle><circle r="8" cx="1125" cy="580" opacity="0.37"></circle><circle r="8" cx="682" cy="1092" opacity="0.86"></circle><circle r="8" cx="7" cy="1037" opacity="0.23"></circle><circle r="8" cx="-347" cy="458" opacity="0.19"></circle><circle r="8" cx="-88" cy="-170" opacity="0.41"></circle><circle r="8" cx="573" cy="-331" opacity="0.96"></circle><circle r="8" cx="1093" cy="108" opacity="0.75"></circle><circle r="8" cx="1046" cy="788" opacity="0.56"></circle><circle r="8" cx="468" cy="1151" opacity="0.20"></circle><circle r="8" cx="-167" cy="898" opacity="0.35"></circle><circle r="8" cx="-338" cy="235" opacity="0.40"></circle><circle r="8" cx="97" cy="-294" opacity="0.10"></circle><circle r="8" cx="782" cy="-255" opacity="0.22"></circle><circle r="8" cx="1155" cy="323" opacity="0.25"></circle><circle r="8" cx="908" cy="965" opacity="0.89"></circle><circle r="8" cx="244" cy="1145" opacity="0.89"></circle><circle r="8" cx="-294" cy="713" opacity="0.40"></circle><circle r="8" cx="-263" cy="24" opacity="0.74"></circle><circle r="8" cx="313" cy="-359" opacity="0.84"></circle><circle r="8" cx="962" cy="-119" opacity="0.63"></circle><circle r="8" cx="1151" cy="548" opacity="0.47"></circle><circle r="8" cx="724" cy="1095" opacity="0.32"></circle><circle r="8" cx="30" cy="1072" opacity="0.12"></circle><circle r="8" cx="-362" cy="497" opacity="0.35"></circle><circle r="8" cx="-129" cy="-159" opacity="0.74"></circle><circle r="8" cx="540" cy="-357" opacity="0.85"></circle><circle r="8" cx="1095" cy="66" opacity="0.87"></circle><circle r="8" cx="1081" cy="764" opacity="0.35"></circle><circle r="8" cx="507" cy="1165" opacity="0.70"></circle><circle r="8" cx="-155" cy="939" opacity="0.62"></circle><circle r="8" cx="-364" cy="269" opacity="0.63"></circle><circle r="8" cx="55" cy="-295" opacity="0.53"></circle><circle r="8" cx="758" cy="-289" opacity="0.12"></circle><circle r="8" cx="1169" cy="282" opacity="0.31"></circle><circle r="8" cx="949" cy="952" opacity="0.71"></circle><circle r="8" cx="278" cy="1170" opacity="0.57"></circle><circle r="8" cx="-295" cy="756" opacity="0.61"></circle><circle r="8" cx="-298" cy="48" opacity="0.93"></circle><circle r="8" cx="272" cy="-372" opacity="0.38"></circle><circle r="8" cx="949" cy="-159" opacity="0.75"></circle><circle r="8" cx="1176" cy="513" opacity="0.38"></circle><circle r="8" cx="767" cy="1094" opacity="0.21"></circle><circle r="8" cx="55" cy="1106" opacity="0.88"></circle><circle r="8" cx="-375" cy="538" opacity="0.62"></circle><circle r="8" cx="-169" cy="-145" opacity="0.31"></circle><circle r="8" cx="504" cy="-382" opacity="0.32"></circle></g></svg>