<svg xmlns="http://www.w3.org/2000/svg" version="1.1" xmlns:xlink="http://www.w3.org/1999/xlink" xmlns:svgjs="http://svgjs.dev/svgjs" viewBox="0 0 800 800" opacity="0.88"><g stroke-width="4" stroke="#a5a4a5" fill="none" stroke-linecap="round" transform="matrix(1,0,0,1,-5,-1506.9953384399414)"><path d="M10,10C31.726190476190478,17.916666666666664,68.75,58.83333333333333,114.28571428571429,48C159.82142857142858,37.16666666666667,180.95238095238096,-40.958333333333336,228.57142857142858,-42C276.1904761904762,-43.041666666666664,295.2380952380953,44.25,342.8571428571429,43C390.4761904761905,41.75,409.5238095238095,-53.208333333333336,457.14285714285717,-48C504.7619047619048,-42.791666666666664,523.8095238095239,70.70833333333333,571.4285714285714,68C619.047619047619,65.29166666666667,638.0952380952382,-58.291666666666664,685.7142857142858,-61C733.3333333333334,-63.708333333333336,776.1904761904761,30.833333333333336,800,55"></path><path d="M10,10C31.726190476190478,17.916666666666664,68.75,58.83333333333333,114.28571428571429,48C159.82142857142858,37.16666666666667,180.95238095238096,-40.958333333333336,228.57142857142858,-42C276.1904761904762,-43.041666666666664,295.2380952380953,44.25,342.8571428571429,43C390.4761904761905,41.75,409.5238095238095,-53.208333333333336,457.14285714285717,-48C504.7619047619048,-42.791666666666664,523.8095238095239,70.70833333333333,571.4285714285714,68C619.047619047619,65.29166666666667,638.0952380952382,-58.291666666666664,685.7142857142858,-61C733.3333333333334,-63.708333333333336,776.1904761904761,30.833333333333336,800,55" transform="matrix(1,0,0,1,0,3807)"></path><path d="M10,10C31.726190476190478,17.916666666666664,68.75,58.83333333333333,114.28571428571429,48C159.82142857142858,37.16666666666667,180.95238095238096,-40.958333333333336,228.57142857142858,-42C276.1904761904762,-43.041666666666664,295.2380952380953,44.25,342.8571428571429,43C390.4761904761905,41.75,409.5238095238095,-53.208333333333336,457.14285714285717,-48C504.7619047619048,-42.791666666666664,523.8095238095239,70.70833333333333,571.4285714285714,68C619.047619047619,65.29166666666667,638.0952380952382,-58.291666666666664,685.7142857142858,-61C733.3333333333334,-63.708333333333336,776.1904761904761,30.833333333333336,800,55" transform="matrix(1,0,0,1,0,3666)"></path><path d="M10,10C31.726190476190478,17.916666666666664,68.75,58.83333333333333,114.28571428571429,48C159.82142857142858,37.16666666666667,180.95238095238096,-40.958333333333336,228.57142857142858,-42C276.1904761904762,-43.041666666666664,295.2380952380953,44.25,342.8571428571429,43C390.4761904761905,41.75,409.5238095238095,-53.208333333333336,457.14285714285717,-48C504.7619047619048,-42.791666666666664,523.8095238095239,70.70833333333333,571.4285714285714,68C619.047619047619,65.29166666666667,638.0952380952382,-58.291666666666664,685.7142857142858,-61C733.3333333333334,-63.708333333333336,776.1904761904761,30.833333333333336,800,55" transform="matrix(1,0,0,1,0,3525)"></path><path d="M10,10C31.726190476190478,17.916666666666664,68.75,58.83333333333333,114.28571428571429,48C159.82142857142858,37.16666666666667,180.95238095238096,-40.958333333333336,228.57142857142858,-42C276.1904761904762,-43.041666666666664,295.2380952380953,44.25,342.8571428571429,43C390.4761904761905,41.75,409.5238095238095,-53.208333333333336,457.14285714285717,-48C504.7619047619048,-42.791666666666664,523.8095238095239,70.70833333333333,571.4285714285714,68C619.047619047619,65.29166666666667,638.0952380952382,-58.291666666666664,685.7142857142858,-61C733.3333333333334,-63.708333333333336,776.1904761904761,30.833333333333336,800,55" transform="matrix(1,0,0,1,0,3384)"></path><path d="M10,10C31.726190476190478,17.916666666666664,68.75,58.83333333333333,114.28571428571429,48C159.82142857142858,37.16666666666667,180.95238095238096,-40.958333333333336,228.57142857142858,-42C276.1904761904762,-43.041666666666664,295.2380952380953,44.25,342.8571428571429,43C390.4761904761905,41.75,409.5238095238095,-53.208333333333336,457.14285714285717,-48C504.7619047619048,-42.791666666666664,523.8095238095239,70.70833333333333,571.4285714285714,68C619.047619047619,65.29166666666667,638.0952380952382,-58.291666666666664,685.7142857142858,-61C733.3333333333334,-63.708333333333336,776.1904761904761,30.833333333333336,800,55" transform="matrix(1,0,0,1,0,3243)"></path><path d="M10,10C31.726190476190478,17.916666666666664,68.75,58.83333333333333,114.28571428571429,48C159.82142857142858,37.16666666666667,180.95238095238096,-40.958333333333336,228.57142857142858,-42C276.1904761904762,-43.041666666666664,295.2380952380953,44.25,342.8571428571429,43C390.4761904761905,41.75,409.5238095238095,-53.208333333333336,457.14285714285717,-48C504.7619047619048,-42.791666666666664,523.8095238095239,70.70833333333333,571.4285714285714,68C619.047619047619,65.29166666666667,638.0952380952382,-58.291666666666664,685.7142857142858,-61C733.3333333333334,-63.708333333333336,776.1904761904761,30.833333333333336,800,55" transform="matrix(1,0,0,1,0,3102)"></path><path d="M10,10C31.726190476190478,17.916666666666664,68.75,58.83333333333333,114.28571428571429,48C159.82142857142858,37.16666666666667,180.95238095238096,-40.958333333333336,228.57142857142858,-42C276.1904761904762,-43.041666666666664,295.2380952380953,44.25,342.8571428571429,43C390.4761904761905,41.75,409.5238095238095,-53.208333333333336,457.14285714285717,-48C504.7619047619048,-42.791666666666664,523.8095238095239,70.70833333333333,571.4285714285714,68C619.047619047619,65.29166666666667,638.0952380952382,-58.291666666666664,685.7142857142858,-61C733.3333333333334,-63.708333333333336,776.1904761904761,30.833333333333336,800,55" transform="matrix(1,0,0,1,0,2961)"></path><path d="M10,10C31.726190476190478,17.916666666666664,68.75,58.83333333333333,114.28571428571429,48C159.82142857142858,37.16666666666667,180.95238095238096,-40.958333333333336,228.57142857142858,-42C276.1904761904762,-43.041666666666664,295.2380952380953,44.25,342.8571428571429,43C390.4761904761905,41.75,409.5238095238095,-53.208333333333336,457.14285714285717,-48C504.7619047619048,-42.791666666666664,523.8095238095239,70.70833333333333,571.4285714285714,68C619.047619047619,65.29166666666667,638.0952380952382,-58.291666666666664,685.7142857142858,-61C733.3333333333334,-63.708333333333336,776.1904761904761,30.833333333333336,800,55" transform="matrix(1,0,0,1,0,2820)"></path><path d="M10,10C31.726190476190478,17.916666666666664,68.75,58.83333333333333,114.28571428571429,48C159.82142857142858,37.16666666666667,180.95238095238096,-40.958333333333336,228.57142857142858,-42C276.1904761904762,-43.041666666666664,295.2380952380953,44.25,342.8571428571429,43C390.4761904761905,41.75,409.5238095238095,-53.208333333333336,457.14285714285717,-48C504.7619047619048,-42.791666666666664,523.8095238095239,70.70833333333333,571.4285714285714,68C619.047619047619,65.29166666666667,638.0952380952382,-58.291666666666664,685.7142857142858,-61C733.3333333333334,-63.708333333333336,776.1904761904761,30.833333333333336,800,55" transform="matrix(1,0,0,1,0,2679)"></path><path d="M10,10C31.726190476190478,17.916666666666664,68.75,58.83333333333333,114.28571428571429,48C159.82142857142858,37.16666666666667,180.95238095238096,-40.958333333333336,228.57142857142858,-42C276.1904761904762,-43.041666666666664,295.2380952380953,44.25,342.8571428571429,43C390.4761904761905,41.75,409.5238095238095,-53.208333333333336,457.14285714285717,-48C504.7619047619048,-42.791666666666664,523.8095238095239,70.70833333333333,571.4285714285714,68C619.047619047619,65.29166666666667,638.0952380952382,-58.291666666666664,685.7142857142858,-61C733.3333333333334,-63.708333333333336,776.1904761904761,30.833333333333336,800,55" transform="matrix(1,0,0,1,0,2538)"></path><path d="M10,10C31.726190476190478,17.916666666666664,68.75,58.83333333333333,114.28571428571429,48C159.82142857142858,37.16666666666667,180.95238095238096,-40.958333333333336,228.57142857142858,-42C276.1904761904762,-43.041666666666664,295.2380952380953,44.25,342.8571428571429,43C390.4761904761905,41.75,409.5238095238095,-53.208333333333336,457.14285714285717,-48C504.7619047619048,-42.791666666666664,523.8095238095239,70.70833333333333,571.4285714285714,68C619.047619047619,65.29166666666667,638.0952380952382,-58.291666666666664,685.7142857142858,-61C733.3333333333334,-63.708333333333336,776.1904761904761,30.833333333333336,800,55" transform="matrix(1,0,0,1,0,2397)"></path><path d="M10,10C31.726190476190478,17.916666666666664,68.75,58.83333333333333,114.28571428571429,48C159.82142857142858,37.16666666666667,180.95238095238096,-40.958333333333336,228.57142857142858,-42C276.1904761904762,-43.041666666666664,295.2380952380953,44.25,342.8571428571429,43C390.4761904761905,41.75,409.5238095238095,-53.208333333333336,457.14285714285717,-48C504.7619047619048,-42.791666666666664,523.8095238095239,70.70833333333333,571.4285714285714,68C619.047619047619,65.29166666666667,638.0952380952382,-58.291666666666664,685.7142857142858,-61C733.3333333333334,-63.708333333333336,776.1904761904761,30.833333333333336,800,55" transform="matrix(1,0,0,1,0,2256)"></path><path d="M10,10C31.726190476190478,17.916666666666664,68.75,58.83333333333333,114.28571428571429,48C159.82142857142858,37.16666666666667,180.95238095238096,-40.958333333333336,228.57142857142858,-42C276.1904761904762,-43.041666666666664,295.2380952380953,44.25,342.8571428571429,43C390.4761904761905,41.75,409.5238095238095,-53.208333333333336,457.14285714285717,-48C504.7619047619048,-42.791666666666664,523.8095238095239,70.70833333333333,571.4285714285714,68C619.047619047619,65.29166666666667,638.0952380952382,-58.291666666666664,685.7142857142858,-61C733.3333333333334,-63.708333333333336,776.1904761904761,30.833333333333336,800,55" transform="matrix(1,0,0,1,0,2115)"></path><path d="M10,10C31.726190476190478,17.916666666666664,68.75,58.83333333333333,114.28571428571429,48C159.82142857142858,37.16666666666667,180.95238095238096,-40.958333333333336,228.57142857142858,-42C276.1904761904762,-43.041666666666664,295.2380952380953,44.25,342.8571428571429,43C390.4761904761905,41.75,409.5238095238095,-53.208333333333336,457.14285714285717,-48C504.7619047619048,-42.791666666666664,523.8095238095239,70.70833333333333,571.4285714285714,68C619.047619047619,65.29166666666667,638.0952380952382,-58.291666666666664,685.7142857142858,-61C733.3333333333334,-63.708333333333336,776.1904761904761,30.833333333333336,800,55" transform="matrix(1,0,0,1,0,1974)"></path><path d="M10,10C31.726190476190478,17.916666666666664,68.75,58.83333333333333,114.28571428571429,48C159.82142857142858,37.16666666666667,180.95238095238096,-40.958333333333336,228.57142857142858,-42C276.1904761904762,-43.041666666666664,295.2380952380953,44.25,342.8571428571429,43C390.4761904761905,41.75,409.5238095238095,-53.208333333333336,457.14285714285717,-48C504.7619047619048,-42.791666666666664,523.8095238095239,70.70833333333333,571.4285714285714,68C619.047619047619,65.29166666666667,638.0952380952382,-58.291666666666664,685.7142857142858,-61C733.3333333333334,-63.708333333333336,776.1904761904761,30.833333333333336,800,55" transform="matrix(1,0,0,1,0,1833)"></path><path d="M10,10C31.726190476190478,17.916666666666664,68.75,58.83333333333333,114.28571428571429,48C159.82142857142858,37.16666666666667,180.95238095238096,-40.958333333333336,228.57142857142858,-42C276.1904761904762,-43.041666666666664,295.2380952380953,44.25,342.8571428571429,43C390.4761904761905,41.75,409.5238095238095,-53.208333333333336,457.14285714285717,-48C504.7619047619048,-42.791666666666664,523.8095238095239,70.70833333333333,571.4285714285714,68C619.047619047619,65.29166666666667,638.0952380952382,-58.291666666666664,685.7142857142858,-61C733.3333333333334,-63.708333333333336,776.1904761904761,30.833333333333336,800,55" transform="matrix(1,0,0,1,0,1692)"></path><path d="M10,10C31.726190476190478,17.916666666666664,68.75,58.83333333333333,114.28571428571429,48C159.82142857142858,37.16666666666667,180.95238095238096,-40.958333333333336,228.57142857142858,-42C276.1904761904762,-43.041666666666664,295.2380952380953,44.25,342.8571428571429,43C390.4761904761905,41.75,409.5238095238095,-53.208333333333336,457.14285714285717,-48C504.7619047619048,-42.791666666666664,523.8095238095239,70.70833333333333,571.4285714285714,68C619.047619047619,65.29166666666667,638.0952380952382,-58.291666666666664,685.7142857142858,-61C733.3333333333334,-63.708333333333336,776.1904761904761,30.833333333333336,800,55" transform="matrix(1,0,0,1,0,1551)"></path><path d="M10,10C31.726190476190478,17.916666666666664,68.75,58.83333333333333,114.28571428571429,48C159.82142857142858,37.16666666666667,180.95238095238096,-40.958333333333336,228.57142857142858,-42C276.1904761904762,-43.041666666666664,295.2380952380953,44.25,342.8571428571429,43C390.4761904761905,41.75,409.5238095238095,-53.208333333333336,457.14285714285717,-48C504.7619047619048,-42.791666666666664,523.8095238095239,70.70833333333333,571.4285714285714,68C619.047619047619,65.29166666666667,638.0952380952382,-58.291666666666664,685.7142857142858,-61C733.3333333333334,-63.708333333333336,776.1904761904761,30.833333333333336,800,55" transform="matrix(1,0,0,1,0,1410)"></path><path d="M10,10C31.726190476190478,17.916666666666664,68.75,58.83333333333333,114.28571428571429,48C159.82142857142858,37.16666666666667,180.95238095238096,-40.958333333333336,228.57142857142858,-42C276.1904761904762,-43.041666666666664,295.2380952380953,44.25,342.8571428571429,43C390.4761904761905,41.75,409.5238095238095,-53.208333333333336,457.14285714285717,-48C504.7619047619048,-42.791666666666664,523.8095238095239,70.70833333333333,571.4285714285714,68C619.047619047619,65.29166666666667,638.0952380952382,-58.291666666666664,685.7142857142858,-61C733.3333333333334,-63.708333333333336,776.1904761904761,30.833333333333336,800,55" transform="matrix(1,0,0,1,0,1269)"></path><path d="M10,10C31.726190476190478,17.916666666666664,68.75,58.83333333333333,114.28571428571429,48C159.82142857142858,37.16666666666667,180.95238095238096,-40.958333333333336,228.57142857142858,-42C276.1904761904762,-43.041666666666664,295.2380952380953,44.25,342.8571428571429,43C390.4761904761905,41.75,409.5238095238095,-53.208333333333336,457.14285714285717,-48C504.7619047619048,-42.791666666666664,523.8095238095239,70.70833333333333,571.4285714285714,68C619.047619047619,65.29166666666667,638.0952380952382,-58.291666666666664,685.7142857142858,-61C733.3333333333334,-63.708333333333336,776.1904761904761,30.833333333333336,800,55" transform="matrix(1,0,0,1,0,1128)"></path><path d="M10,10C31.726190476190478,17.916666666666664,68.75,58.83333333333333,114.28571428571429,48C159.82142857142858,37.16666666666667,180.95238095238096,-40.958333333333336,228.57142857142858,-42C276.1904761904762,-43.041666666666664,295.2380952380953,44.25,342.8571428571429,43C390.4761904761905,41.75,409.5238095238095,-53.208333333333336,457.14285714285717,-48C504.7619047619048,-42.791666666666664,523.8095238095239,70.70833333333333,571.4285714285714,68C619.047619047619,65.29166666666667,638.0952380952382,-58.291666666666664,685.7142857142858,-61C733.3333333333334,-63.708333333333336,776.1904761904761,30.833333333333336,800,55" transform="matrix(1,0,0,1,0,987)"></path><path d="M10,10C31.726190476190478,17.916666666666664,68.75,58.83333333333333,114.28571428571429,48C159.82142857142858,37.16666666666667,180.95238095238096,-40.958333333333336,228.57142857142858,-42C276.1904761904762,-43.041666666666664,295.2380952380953,44.25,342.8571428571429,43C390.4761904761905,41.75,409.5238095238095,-53.208333333333336,457.14285714285717,-48C504.7619047619048,-42.791666666666664,523.8095238095239,70.70833333333333,571.4285714285714,68C619.047619047619,65.29166666666667,638.0952380952382,-58.291666666666664,685.7142857142858,-61C733.3333333333334,-63.708333333333336,776.1904761904761,30.833333333333336,800,55" transform="matrix(1,0,0,1,0,846)"></path><path d="M10,10C31.726190476190478,17.916666666666664,68.75,58.83333333333333,114.28571428571429,48C159.82142857142858,37.16666666666667,180.95238095238096,-40.958333333333336,228.57142857142858,-42C276.1904761904762,-43.041666666666664,295.2380952380953,44.25,342.8571428571429,43C390.4761904761905,41.75,409.5238095238095,-53.208333333333336,457.14285714285717,-48C504.7619047619048,-42.791666666666664,523.8095238095239,70.70833333333333,571.4285714285714,68C619.047619047619,65.29166666666667,638.0952380952382,-58.291666666666664,685.7142857142858,-61C733.3333333333334,-63.708333333333336,776.1904761904761,30.833333333333336,800,55" transform="matrix(1,0,0,1,0,705)"></path><path d="M10,10C31.726190476190478,17.916666666666664,68.75,58.83333333333333,114.28571428571429,48C159.82142857142858,37.16666666666667,180.95238095238096,-40.958333333333336,228.57142857142858,-42C276.1904761904762,-43.041666666666664,295.2380952380953,44.25,342.8571428571429,43C390.4761904761905,41.75,409.5238095238095,-53.208333333333336,457.14285714285717,-48C504.7619047619048,-42.791666666666664,523.8095238095239,70.70833333333333,571.4285714285714,68C619.047619047619,65.29166666666667,638.0952380952382,-58.291666666666664,685.7142857142858,-61C733.3333333333334,-63.708333333333336,776.1904761904761,30.833333333333336,800,55" transform="matrix(1,0,0,1,0,564)"></path><path d="M10,10C31.726190476190478,17.916666666666664,68.75,58.83333333333333,114.28571428571429,48C159.82142857142858,37.16666666666667,180.95238095238096,-40.958333333333336,228.57142857142858,-42C276.1904761904762,-43.041666666666664,295.2380952380953,44.25,342.8571428571429,43C390.4761904761905,41.75,409.5238095238095,-53.208333333333336,457.14285714285717,-48C504.7619047619048,-42.791666666666664,523.8095238095239,70.70833333333333,571.4285714285714,68C619.047619047619,65.29166666666667,638.0952380952382,-58.291666666666664,685.7142857142858,-61C733.3333333333334,-63.708333333333336,776.1904761904761,30.833333333333336,800,55" transform="matrix(1,0,0,1,0,423)"></path><path d="M10,10C31.726190476190478,17.916666666666664,68.75,58.83333333333333,114.28571428571429,48C159.82142857142858,37.16666666666667,180.95238095238096,-40.958333333333336,228.57142857142858,-42C276.1904761904762,-43.041666666666664,295.2380952380953,44.25,342.8571428571429,43C390.4761904761905,41.75,409.5238095238095,-53.208333333333336,457.14285714285717,-48C504.7619047619048,-42.791666666666664,523.8095238095239,70.70833333333333,571.4285714285714,68C619.047619047619,65.29166666666667,638.0952380952382,-58.291666666666664,685.7142857142858,-61C733.3333333333334,-63.708333333333336,776.1904761904761,30.833333333333336,800,55" transform="matrix(1,0,0,1,0,282)"></path><path d="M10,10C31.726190476190478,17.916666666666664,68.75,58.83333333333333,114.28571428571429,48C159.82142857142858,37.16666666666667,180.95238095238096,-40.958333333333336,228.57142857142858,-42C276.1904761904762,-43.041666666666664,295.2380952380953,44.25,342.8571428571429,43C390.4761904761905,41.75,409.5238095238095,-53.208333333333336,457.14285714285717,-48C504.7619047619048,-42.791666666666664,523.8095238095239,70.70833333333333,571.4285714285714,68C619.047619047619,65.29166666666667,638.0952380952382,-58.291666666666664,685.7142857142858,-61C733.3333333333334,-63.708333333333336,776.1904761904761,30.833333333333336,800,55" transform="matrix(1,0,0,1,0,141)"></path></g></svg>